<?xml version="1.0" encoding="utf-8"?>
<svg xmlns="http://www.w3.org/2000/svg"
	xmlns:xlink="http://www.w3.org/1999/xlink"
	width="18px" height="24px" viewBox="0 0 18 24">
<filter filterUnits="objectBoundingBox" x="0.00" y="0.00" width="100.00" height="100.00" id="filter0">
<feFlood flood-color="rgb(255,255,255)" result="coFloodOut1"/>
<feComposite in="coFloodOut1" in2="SourceAlpha" operator="in" result="coOverlay1"/>
<feBlend in="coOverlay1" in2="SourceGraphic" mode="normal" result="colorOverlay1"/>
</filter>
<path fillRule="evenodd" d="M 15 3C 15 3 13.5 3 13.5 3 13.5 1.34 11.48-0 9-0 6.51-0 4.5 1.34 4.5 3 4.5 3 3 3 3 3 1.35 3 0 4.34 0 6 0 6 0 21 0 21 0 22.65 1.35 23.99 3 23.99 3 23.99 15 23.99 15 23.99 16.65 23.99 17.99 22.65 17.99 21 17.99 21 17.99 6 17.99 6 17.99 4.34 16.65 3 15 3ZM 9 1.5C 10.66 1.5 12 1.96 12 3 12 3 6 3 6 3 6 1.96 7.34 1.5 9 1.5ZM 16.49 21C 16.49 21.82 15.82 22.49 15 22.49 15 22.49 3 22.49 3 22.49 2.17 22.49 1.5 21.82 1.5 21 1.5 21 1.5 19.5 1.5 19.5 1.5 19.5 16.49 19.5 16.49 19.5 16.49 19.5 16.49 21 16.49 21ZM 16.49 18C 16.49 18 1.5 18 1.5 18 1.5 18 1.5 6 1.5 6 1.5 5.17 2.17 4.5 3 4.5 3 4.5 4.5 4.5 4.5 4.5 4.5 4.5 4.5 9 4.5 9 4.5 9 6 9 6 9 6 9 6 4.5 6 4.5 6 4.5 12 4.5 12 4.5 12 4.5 12 9 12 9 12 9 13.5 9 13.5 9 13.5 9 13.5 4.5 13.5 4.5 13.5 4.5 15 4.5 15 4.5 15.82 4.5 16.49 5.17 16.49 6 16.49 6 16.49 18 16.49 18Z" fill="rgb(0,0,0)" filter="url(#filter0)"/></svg>